<svg xmlns="http://www.w3.org/2000/svg" xmlns:xlink="http://www.w3.org/1999/xlink" xmlns:lucid="lucid" width="725.71" height="702"><g transform="translate(-8439 2361)" lucid:page-tab-id="0_0"><path d="M8440-2348a12 12 0 0 1 12-12h699.7a12 12 0 0 1 12 12v29.9H8440z" fill-opacity="0"/><path d="M8472.28-2360h20.28m10.14 0h20.28m10.15 0h20.28m10.15 0h20.28m10.14 0h20.28m10.14 0h20.27m10.15 0h20.28m10.14 0h20.28m10.14 0h20.28m10.14 0h20.28m10.14 0h20.3m10.13 0h20.28m10.15 0h20.28m10.14 0h20.28m10.14 0h20.28m10.14 0h20.28m10.14 0h20.28m10.14 0h20.28m10.14 0h20.3m10.13 0h20.3m10.13 0H9101m10.15 0h20.28m10.14 0h10.14a12 12 0 0 1 12 12v9.96m0 9.97v9.96h-10.04m-10.05 0h-20.1m-10.04 0h-20.1m-10.06 0h-20.1m-10.05 0h-20.1m-10.06 0h-20.1m-10.06 0h-20.1m-10.06 0h-20.1m-10.05 0h-20.1m-10.06 0h-20.1m-10.05 0h-20.1m-10.06 0h-20.1m-10.05 0h-20.1m-10.05 0h-20.1m-10.05 0h-20.1m-10.06 0h-20.1m-10.05 0h-20.1m-10.07 0h-20.1m-10.05 0h-20.1m-10.05 0h-20.1m-10.06 0h-20.1m-10.05 0h-20.1m-10.06 0h-20.1m-10.05 0h-20.1m-10.05 0H8440v-9.97m0-9.97v-9.96a12 12 0 0 1 12-12h10.14" stroke="#3a414a" stroke-width="2" fill="none"/><path d="M8440-2276.22v-41.9h323.7v41.9" fill-opacity="0"/><path d="M8440-2276.22v-13.97m0-13.95v-13.96h9.8m9.82 0h19.62m9.8 0h19.63m9.8 0h19.63m9.8 0h19.62m9.8 0h19.63m9.8 0h19.63m9.8 0h19.63m9.82 0h19.62m9.8 0h19.63m9.8 0h19.62m9.8 0h9.8v13.95m0 13.96v13.98" stroke="#3a414a" stroke-width="2" fill="none"/><path d="M8763.7-2276.22v-41.9h400v41.9" fill-opacity="0"/><path d="M8763.7-2276.22v-13.97m0-13.95v-13.96h10.27m10.26 0h20.5m10.27 0h20.5m10.26 0h20.52m10.25 0h20.52m10.25 0h20.52m10.25 0h20.5m10.27 0h20.5m10.27 0h20.52m10.26 0h20.5m10.27 0h20.5m10.27 0h20.5m10.27 0h20.5m10.26 0h10.25v13.95m0 13.96v13.98M8459.62-2276.22h19.62m9.8 0h19.63m9.8 0h19.63m9.8 0h19.62m9.8 0h19.63m9.8 0h19.63m9.8 0h19.63m9.82 0h19.62m9.8 0h19.63m9.8 0h19.62m9.8 0h9.8v9.78m0 9.78v19.56m0 9.78v19.57m0 9.78v19.56m0 9.77v19.56m0 9.8v19.55m0 9.78v19.56m0 9.78v19.57m0 9.78v19.56m0 9.8v19.55m0 9.78v19.57m0 9.78v19.56m0 9.78v19.57m0 9.77v19.56m0 9.78v19.57m0 9.8v19.55m0 9.78v19.56m0 9.78v19.57m0 9.8v19.55m0 9.78v19.56m0 9.78v19.56m0 9.78v9.78h-10.38m-10.4 0h-20.77m-10.4 0H8691m-10.4 0h-20.77m-10.38 0h-20.78m-10.4 0h-20.77m-10.4 0h-20.77m-10.4 0h-20.78m-10.4 0h-20.77m-10.4 0h-20.77m-10.4 0H8452a12 12 0 0 1-12-12v-10.07m0-10.07v-20.14m0-10.07v-20.14m0-10.06v-20.14m0-10.07v-20.14m0-10.1v-20.13m0-10.07v-20.14m0-10.07v-20.15m0-10.07v-20.14m0-10.07v-20.14m0-10.07v-20.14m0-10.07v-20.14m0-10.06v-20.14m0-10.08v-20.14m0-10.07v-20.13m0-10.07v-20.14m0-10.07v-20.15m0-10.07v-20.14m0-10.07v-20.14m0-10.07v-20.14m0-10.07v-10.07h9.8M8784.23-2276.22h20.5m10.27 0h20.5m10.26 0h20.52m10.25 0h20.52m10.25 0h20.52m10.25 0h20.5m10.27 0h20.5m10.27 0h20.52m10.26 0h20.5m10.27 0h20.5m10.27 0h20.5m10.27 0h20.5m10.26 0h10.25v10.07m0 10.07v20.14m0 10.07v20.14m0 10.07v20.14m0 10.07v20.14m0 10.06v20.14m0 10.07v20.14m0 10.08v20.14m0 10.07v20.14m0 10.07v20.15m0 10.07v20.14m0 10.07v20.14m0 10.07v20.14m0 10.07v20.14m0 10.06v20.14m0 10.07v20.14m0 10.1v20.13m0 10.07v20.14m0 10.07v20.15m0 10.07v20.14m0 10.07v10.07a12 12 0 0 1-12 12h-9.94m-9.94 0h-19.9m-9.95 0h-19.9m-9.95 0h-19.9m-9.94 0h-19.9m-9.95 0h-19.9m-9.95 0h-19.9m-9.94 0h-19.9m-9.95 0H8903m-9.95 0h-19.9m-9.95 0h-19.9m-9.94 0h-19.9m-9.95 0h-19.9m-9.94 0h-9.95v-9.78m0-9.78v-19.57m0-9.78v-19.57m0-9.78v-19.56m0-9.8v-19.56m0-9.78v-19.56m0-9.78v-19.57m0-9.78v-19.56m0-9.77v-19.56m0-9.8v-19.55m0-9.78v-19.56m0-9.78v-19.57m0-9.78v-19.56m0-9.8v-19.55m0-9.78v-19.57m0-9.78v-19.56m0-9.78v-19.57m0-9.77v-19.56m0-9.78v-19.57m0-9.8v-19.55m0-9.78v-19.56m0-9.78v-9.78h10.27" stroke="#3a414a" stroke-width="2" fill="none"/><use xlink:href="#a" transform="matrix(1,0,0,1,8440,-2360) translate(239.21354166666666 29.08376736111111)"/><use xlink:href="#b" transform="matrix(1,0,0,1,8440,-2360) translate(332.1497395833333 29.08376736111111)"/><use xlink:href="#b" transform="matrix(1,0,0,1,8440,-2360) translate(382.37760416666663 29.08376736111111)"/><use xlink:href="#c" transform="matrix(1,0,0,1,8440,-2360) translate(432.60546875 29.08376736111111)"/><use xlink:href="#d" transform="matrix(1,0,0,1,8440,-2318.1119791666665) translate(115.42881944444446 29.08376736111111)"/><use xlink:href="#e" transform="matrix(1,0,0,1,8763.713480352171,-2318.1119791666665) translate(71.435546875 29.08376736111111)"/><use xlink:href="#f" transform="matrix(1,0,0,1,8763.713480352171,-2318.1119791666665) translate(149.25672743055554 29.08376736111111)"/><use xlink:href="#g" transform="matrix(1,0,0,1,8763.713480352171,-2318.1119791666665) translate(293.0718315972222 29.08376736111111)"/><path d="M8525-2082.5a37.5 37.5 0 0 1 37.5-37.5h75a37.5 37.5 0 0 1 37.5 37.5 37.5 37.5 0 0 1-37.5 37.5h-75a37.5 37.5 0 0 1-37.5-37.5z" stroke="#000" stroke-width="2" fill="#fff"/><use xlink:href="#h" transform="matrix(1,0,0,1,8530,-2115) translate(32.50542534722223 27.139756944444443)"/><use xlink:href="#i" transform="matrix(1,0,0,1,8530,-2115) translate(78.23025173611111 27.139756944444443)"/><use xlink:href="#j" transform="matrix(1,0,0,1,8530,-2115) translate(24.470486111111114 54.02777777777778)"/><path d="M8620-2220c0 11.05-8.95 20-20 20s-20-8.95-20-20 8.95-20 20-20 20 8.95 20 20z" stroke="#3a414a" stroke-width="2"/><path d="M8600-2198.5v61.12" stroke="#3a414a" fill="none"/><path d="M8599.95-2199l.52-.02v.53h-.94v-.55z" stroke="#3a414a" stroke-width=".05" fill="#3a414a"/><path d="M8600-2122.62l-4.64-14.26h9.27z" stroke="#3a414a" fill="#3a414a"/><path d="M8676.5-2082.5h250.66" stroke="#3a414a" fill="none"/><path d="M8676.52-2082.03h-.55l.03-.47-.03-.47h.55z" stroke="#3a414a" stroke-width=".05" fill="#3a414a"/><path d="M8941.92-2082.5l-14.26 4.64v-9.28z" stroke="#3a414a" fill="#3a414a"/><path d="M8962.3-2101.1a2 2 0 0 1 2.83 0l17.17 17.2a2 2 0 0 1 0 2.8l-17.17 17.2a2 2 0 0 1-2.83 0l-17.17-17.2a2 2 0 0 1 0-2.8z" stroke="#3a414a" stroke-width="2" fill="#fff"/><path d="M9052.73-2002.14l1 .08 1 .24.92.4.87.52.77.66.65.77.53.87.4.94.23.98.1 1v38.3h-.96v-38.26l-.07-.9-.2-.83-.33-.8-.46-.74-.56-.67-.66-.56-.74-.45-.8-.34-.84-.2-.9-.07h-25.67v-.94zm-88.47-4.66l.2.84.33.8.45.74.56.66.67.57.74.46.8.33.85.2.88.06h25.7v.95h-25.74l-1-.07-1-.23-.93-.4-.86-.52-.77-.66-.66-.78-.53-.86-.4-.94-.22-1-.08-.98v-54.18h.95v54.14z" stroke="#3a414a" stroke-width=".05" fill="#3a414a"/><path d="M8963.24-2062.36l.47.04.48-.04v.55h-.94v-.56z" fill="#3a414a"/><path stroke="#3a414a" stroke-width=".05" fill="#3a414a"/><path d="M9058.7-1942.62l-4.62-14.26h9.27z" fill="#3a414a"/><path d="M9058.7-1941.08l-5.28-16.28H9064zm-3.97-15.33l3.98 12.25 4-12.26z" stroke="#3a414a" stroke-width=".05" fill="#3a414a"/><use xlink:href="#k" transform="matrix(1,0,0,1,8995.41486924106,-2012.4178902670126) translate(0 17.22222222222222)"/><path d="M8983.7-1902.5a37.5 37.5 0 0 1 37.5-37.5h75a37.5 37.5 0 0 1 37.5 37.5 37.5 37.5 0 0 1-37.5 37.5h-75a37.5 37.5 0 0 1-37.5-37.5z" stroke="#000" stroke-width="2" fill="#fff"/><use xlink:href="#l" transform="matrix(1,0,0,1,8988.713480352171,-1934.9999999999998) translate(17.109375 27.67578125)"/><use xlink:href="#m" transform="matrix(1,0,0,1,8988.713480352171,-1934.9999999999998) translate(85 27.67578125)"/><use xlink:href="#n" transform="matrix(1,0,0,1,8988.713480352171,-1934.9999999999998) translate(1.4404296875 51.875)"/><use xlink:href="#o" transform="matrix(1,0,0,1,8988.713480352171,-1934.9999999999998) translate(47.9638671875 51.875)"/><path d="M8828.7-2154a6 6 0 0 1 6-6h258a6 6 0 0 1 6 6v48a6 6 0 0 1-6 6h-258a6 6 0 0 1-6-6z" fill="none"/><use xlink:href="#p" transform="matrix(1,0,0,1,8828.713480352171,-2160) translate(6.750217013888886 38.083767361111114)"/><use xlink:href="#q" transform="matrix(1,0,0,1,8828.713480352171,-2160) translate(184.49544270833334 38.083767361111114)"/><use xlink:href="#r" transform="matrix(1,0,0,1,8828.713480352171,-2160) translate(205.44813368055557 38.083767361111114)"/><path d="M8913.62-2001.2H8894l-.88.08-.84.2-.8.34-.74.45-.66.56-.56.66-.46.73-.33.8-.2.84-.07.9v38.25h-.95v-38.3l.1-1 .23-.98.38-.94.55-.87.66-.77.78-.66.86-.53.94-.4 1-.23 1-.08h19.64zm50.57-6.44l-.1 1-.23.98-.4.94-.52.86-.66.78-.78.66-.87.53-.93.4-1 .23-1 .08h-19.64v-.94h19.6l.9-.07.84-.2.8-.34.74-.45.66-.56.56-.66.45-.73.34-.8.2-.85.07-.88v-54.14h.95z" stroke="#3a414a" stroke-width=".05" fill="#3a414a"/><path d="M8963.24-2062.36l.47.04.48-.04v.55h-.94v-.56z" fill="#3a414a"/><path stroke="#3a414a" stroke-width=".05" fill="#3a414a"/><path d="M8888-1942.62l-4.65-14.26h9.27z" fill="#3a414a"/><path d="M8888-1941.08l-5.3-16.28h10.57zm-4-15.33l4 12.25 3.97-12.26z" stroke="#3a414a" stroke-width=".05" fill="#3a414a"/><use xlink:href="#s" transform="matrix(1,0,0,1,8913.622434786004,-2012.4178902670126) translate(0 17.22222222222222)"/><path d="M8793.7-1902.5a37.5 37.5 0 0 1 37.5-37.5h75a37.5 37.5 0 0 1 37.5 37.5 37.5 37.5 0 0 1-37.5 37.5h-75a37.5 37.5 0 0 1-37.5-37.5z" stroke="#000" stroke-width="2" fill="#fff"/><use xlink:href="#t" transform="matrix(1,0,0,1,8798.713480352171,-1934.9999999999998) translate(10.348307291666671 27.139756944444443)"/><use xlink:href="#u" transform="matrix(1,0,0,1,8798.713480352171,-1934.9999999999998) translate(85.78233506944444 27.139756944444443)"/><use xlink:href="#v" transform="matrix(1,0,0,1,8798.713480352171,-1934.9999999999998) translate(30.45464409722223 54.02777777777778)"/><path d="M8792.2-1902.5H8606a6 6 0 0 0-6 6v39.94" stroke="#3a414a" fill="none"/><path d="M8792.7-1902.5l.05.47h-.55v-.94h.55z" stroke="#3a414a" stroke-width=".05" fill="#3a414a"/><path d="M8600-1841.8l-4.64-14.26h9.27z" stroke="#3a414a" fill="#3a414a"/><path d="M8620-1720c0 11.05-8.95 20-20 20s-20-8.95-20-20 8.95-20 20-20 20 8.95 20 20z" stroke="#3a414a" stroke-width="2" fill="#fff"/><path d="M8612-1720c0 6.63-5.37 12-12 12s-12-5.37-12-12 5.37-12 12-12 12 5.37 12 12z" stroke="#3a414a" stroke-width="2"/><path d="M9058.7-1863.5v37.5a6 6 0 0 1-6 6h-416.14" stroke="#3a414a" fill="none"/><path d="M9059.2-1863.5h-.96v-.5h.95z" stroke="#3a414a" stroke-width=".05" fill="#3a414a"/><path d="M8621.8-1820l14.26-4.63v9.27z" stroke="#3a414a" fill="#3a414a"/><path d="M8598.6-1838.6a2 2 0 0 1 2.8 0l17.2 17.2a2 2 0 0 1 0 2.8l-17.2 17.2a2 2 0 0 1-2.8 0l-17.2-17.2a2 2 0 0 1 0-2.8z" stroke="#3a414a" stroke-width="2" fill="#fff"/><path d="M8600-1799.33v41.94" stroke="#3a414a" fill="none"/><path d="M8599.53-1799.86l.47.03.47-.03v.55h-.94v-.56z" stroke="#3a414a" stroke-width=".05" fill="#3a414a"/><path d="M8600-1742.62l-4.64-14.27 9.27.02z" stroke="#3a414a" fill="#3a414a"/><defs><path d="M783 20c-382 0-661-292-661-764 0-473 279-766 661-766 302 0 548 182 601 489h-190c-42-204-217-313-411-313-268 0-476 208-476 590 0 381 209 588 476 588 195 0 369-110 411-313h190c-52 303-296 489-601 489" id="w"/><path d="M471 26C259 26 90-98 90-318c0-256 228-303 435-329 202-27 287-16 287-108 0-139-79-219-234-219-161 0-248 86-283 164l-173-57c86-203 278-265 451-265 150 0 419 46 419 395V0H815v-152h-12C765-73 660 26 471 26zm31-159c199 0 310-134 310-271v-155c-30 35-226 55-295 64-131 17-246 59-246 186 0 116 97 176 231 176" id="x"/><path d="M613 24c-304 0-509-231-509-576 0-350 205-580 509-580 216 0 392 114 453 309l-173 49c-33-115-133-197-280-197-223 0-326 196-326 419 0 220 103 415 326 415 150 0 252-85 285-206l172 49C1010-95 832 24 613 24" id="y"/><path d="M338-670V0H158v-1490h180v566c73-149 190-208 336-208 226 0 379 139 379 422V0H872v-695c0-172-96-275-252-275-161 0-282 109-282 300" id="z"/><path d="M158 0v-1118h180V0H158zm91-1301c-68 0-125-53-125-119s57-119 125-119c69 0 126 53 126 119s-57 119-126 119" id="A"/><path d="M338-670V0H158v-1118h173l1 207c72-158 192-221 342-221 226 0 378 139 378 422V0H872v-695c0-172-96-275-252-275-161 0-282 109-282 300" id="B"/><path d="M611 442c-248 0-391-105-460-228l146-94c47 65 117 165 314 165 178 0 307-82 307-266v-224h-17C863-141 792-18 576-18c-268 0-472-195-472-546 0-346 197-568 476-568 216 0 288 133 326 193h17v-179h175V29c0 289-215 413-487 413zm-5-620c203 0 314-146 314-390 0-237-108-403-314-403-213 0-319 180-319 403 0 230 109 390 319 390" id="C"/><g id="a"><use transform="matrix(0.010850694444444444,0,0,0.010850694444444444,0,0)" xlink:href="#w"/><use transform="matrix(0.010850694444444444,0,0,0.010850694444444444,16.23263888888889,0)" xlink:href="#x"/><use transform="matrix(0.010850694444444444,0,0,0.010850694444444444,28.7109375,0)" xlink:href="#y"/><use transform="matrix(0.010850694444444444,0,0,0.010850694444444444,41.40625,0)" xlink:href="#z"/><use transform="matrix(0.010850694444444444,0,0,0.010850694444444444,54.54644097222222,0)" xlink:href="#A"/><use transform="matrix(0.010850694444444444,0,0,0.010850694444444444,59.928385416666664,0)" xlink:href="#B"/><use transform="matrix(0.010850694444444444,0,0,0.010850694444444444,73.05772569444444,0)" xlink:href="#C"/></g><path d="M409 0L70-1118h191c89 329 165 560 243 925 75-353 154-601 240-925h192c85 325 161 564 235 922 77-354 157-598 244-922h191L1267 0h-179c-86-307-176-590-250-913C763-588 675-308 588 0H409" id="D"/><path d="M598-1118v154H368v674c0 100 37 144 132 144 23 0 62-6 92-12L629-6c-37 13-88 20-134 20-193 0-307-107-307-290v-688H20v-154h168v-266h180v266h230" id="E"/><g id="b"><use transform="matrix(0.010850694444444444,0,0,0.010850694444444444,0,0)" xlink:href="#D"/><use transform="matrix(0.010850694444444444,0,0,0.010850694444444444,18.18576388888889,0)" xlink:href="#A"/><use transform="matrix(0.010850694444444444,0,0,0.010850694444444444,23.567708333333336,0)" xlink:href="#E"/><use transform="matrix(0.010850694444444444,0,0,0.010850694444444444,30.837673611111114,0)" xlink:href="#z"/></g><path d="M180 0v-1490h908v168H370v486h669v168H370v500h727V0H180" id="F"/><path d="M98-1322v-168h1126v168H757V0H567v-1322H98" id="G"/><g id="c"><use transform="matrix(0.010850694444444444,0,0,0.010850694444444444,0,0)" xlink:href="#F"/><use transform="matrix(0.010850694444444444,0,0,0.010850694444444444,13.35720486111111,0)" xlink:href="#G"/><use transform="matrix(0.010850694444444444,0,0,0.010850694444444444,26.07421875,0)" xlink:href="#x"/><use transform="matrix(0.010850694444444444,0,0,0.010850694444444444,38.552517361111114,0)" xlink:href="#C"/></g><path d="M784 20c-382 0-662-292-662-764 0-473 280-766 662-766s660 293 660 766c0 472-278 764-660 764zm0-176c266 0 475-207 475-588 0-383-209-590-475-590-268 0-477 208-477 590 0 380 209 588 477 588" id="H"/><path d="M158 418v-1536h174v179h20c37-59 106-193 324-193 279 0 474 222 474 576 0 356-194 580-473 580-213 0-288-135-325-197h-14v591H158zm492-555c209 0 317-186 317-421 0-232-105-413-317-413-206 0-314 166-314 413 0 249 111 421 314 421" id="I"/><path d="M628 24c-324 0-524-230-524-574 0-343 198-582 503-582 237 0 487 146 487 559v75H286c9 234 145 362 343 362 132 0 231-58 273-172l174 48C1024-91 857 24 628 24zM287-650h624c-17-190-120-322-304-322-192 0-309 151-320 322" id="J"/><path d="M158 0v-1118h174v172h12c41-113 157-188 290-188 26 0 70 2 91 3v181c-11-2-60-10-108-10-161 0-279 109-279 260V0H158" id="K"/><path d="M613 24c-304 0-509-231-509-576 0-350 205-580 509-580 305 0 511 230 511 580 0 345-206 576-511 576zm0-161c226 0 329-195 329-415 0-222-103-419-329-419-223 0-326 196-326 419 0 220 103 415 326 415" id="L"/><g id="d"><use transform="matrix(0.010850694444444444,0,0,0.010850694444444444,0,0)" xlink:href="#H"/><use transform="matrix(0.010850694444444444,0,0,0.010850694444444444,16.9921875,0)" xlink:href="#I"/><use transform="matrix(0.010850694444444444,0,0,0.010850694444444444,30.598958333333332,0)" xlink:href="#J"/><use transform="matrix(0.010850694444444444,0,0,0.010850694444444444,43.5546875,0)" xlink:href="#K"/><use transform="matrix(0.010850694444444444,0,0,0.010850694444444444,51.920572916666664,0)" xlink:href="#x"/><use transform="matrix(0.010850694444444444,0,0,0.010850694444444444,64.39887152777777,0)" xlink:href="#E"/><use transform="matrix(0.010850694444444444,0,0,0.010850694444444444,71.45182291666666,0)" xlink:href="#L"/><use transform="matrix(0.010850694444444444,0,0,0.010850694444444444,84.77647569444443,0)" xlink:href="#K"/></g><g id="e"><use transform="matrix(0.010850694444444444,0,0,0.010850694444444444,0,0)" xlink:href="#G"/><use transform="matrix(0.010850694444444444,0,0,0.010850694444444444,12.608506944444445,0)" xlink:href="#J"/><use transform="matrix(0.010850694444444444,0,0,0.010850694444444444,25.56423611111111,0)" xlink:href="#B"/><use transform="matrix(0.010850694444444444,0,0,0.010850694444444444,38.693576388888886,0)" xlink:href="#x"/><use transform="matrix(0.010850694444444444,0,0,0.010850694444444444,51.171875,0)" xlink:href="#B"/><use transform="matrix(0.010850694444444444,0,0,0.010850694444444444,64.30121527777777,0)" xlink:href="#E"/></g><path d="M180 0v-1490h270l367 940c28 72 75 218 110 339 35-117 81-264 110-339l362-940h271V0h-187c2-448-5-837 7-1287-157 497-311 829-483 1287H842C666-458 514-784 354-1284c12 438 5 843 7 1284H180" id="M"/><path d="M158 0v-1118h175l1 205c55-151 181-225 313-225 147 0 245 90 285 228 53-141 190-228 352-228 194 0 352 125 352 384V0h-181v-749c0-161-105-225-225-225-151 0-243 103-243 244V0H807v-767c0-124-93-207-219-207-131 0-250 92-250 270V0H158" id="N"/><g id="f"><use transform="matrix(0.010850694444444444,0,0,0.010850694444444444,0,0)" xlink:href="#M"/><use transform="matrix(0.010850694444444444,0,0,0.010850694444444444,20.07378472222222,0)" xlink:href="#x"/><use transform="matrix(0.010850694444444444,0,0,0.010850694444444444,32.55208333333333,0)" xlink:href="#B"/><use transform="matrix(0.010850694444444444,0,0,0.010850694444444444,45.68142361111111,0)" xlink:href="#x"/><use transform="matrix(0.010850694444444444,0,0,0.010850694444444444,58.15972222222221,0)" xlink:href="#C"/><use transform="matrix(0.010850694444444444,0,0,0.010850694444444444,71.78819444444443,0)" xlink:href="#J"/><use transform="matrix(0.010850694444444444,0,0,0.010850694444444444,84.7439236111111,0)" xlink:href="#N"/><use transform="matrix(0.010850694444444444,0,0,0.010850694444444444,104.21006944444441,0)" xlink:href="#J"/><use transform="matrix(0.010850694444444444,0,0,0.010850694444444444,117.1657986111111,0)" xlink:href="#B"/><use transform="matrix(0.010850694444444444,0,0,0.010850694444444444,130.29513888888889,0)" xlink:href="#E"/></g><path d="M52 0l541-1490h220L1361 0h-200l-149-416H398L254 0H52zm404-582h497c-103-290-145-390-251-756-108 377-145 460-246 756" id="O"/><path d="M180 0v-1490h510c348 0 508 209 508 474 0 266-160 477-507 477H370V0H180zm190-706h312c236 0 327-133 327-310 0-176-91-307-329-307H370v617" id="P"/><path d="M370-1490V0H180v-1490h190" id="Q"/><g id="g"><use transform="matrix(0.010850694444444444,0,0,0.010850694444444444,0,0)" xlink:href="#O"/><use transform="matrix(0.010850694444444444,0,0,0.010850694444444444,15.33203125,0)" xlink:href="#P"/><use transform="matrix(0.010850694444444444,0,0,0.010850694444444444,29.524739583333332,0)" xlink:href="#Q"/></g><path d="M338-1490V0H158v-1490h180" id="R"/><g id="h"><use transform="matrix(0.010850694444444444,0,0,0.010850694444444444,0,0)" xlink:href="#w"/><use transform="matrix(0.010850694444444444,0,0,0.010850694444444444,16.23263888888889,0)" xlink:href="#x"/><use transform="matrix(0.010850694444444444,0,0,0.010850694444444444,28.7109375,0)" xlink:href="#R"/><use transform="matrix(0.010850694444444444,0,0,0.010850694444444444,34.09288194444444,0)" xlink:href="#R"/></g><path d="M678-1118v154H420V0H240v-964H20v-154h220v-149c0-194 155-293 318-293 85 0 141 18 168 30l-50 154c-19-6-47-17-97-17-111 0-159 58-159 166v109h258" id="S"/><g id="i"><use transform="matrix(0.010850694444444444,0,0,0.010850694444444444,0,0)" xlink:href="#S"/><use transform="matrix(0.010850694444444444,0,0,0.010850694444444444,7.573784722222222,0)" xlink:href="#L"/><use transform="matrix(0.010850694444444444,0,0,0.010850694444444444,20.8984375,0)" xlink:href="#K"/></g><path d="M180 0v-1490h510c348 0 508 194 508 460 0 198-88 351-276 417L1256 0h-220L726-579c-117 2-238 0-356 1V0H180zm190-747h312c235 0 327-108 327-283 0-177-92-293-329-293H370v576" id="T"/><path d="M481 0L54-1118h197c107 314 236 620 325 951 87-331 217-637 324-951h197L670 0H481" id="U"/><g id="j"><use transform="matrix(0.010850694444444444,0,0,0.010850694444444444,0,0)" xlink:href="#T"/><use transform="matrix(0.010850694444444444,0,0,0.010850694444444444,13.975694444444445,0)" xlink:href="#J"/><use transform="matrix(0.010850694444444444,0,0,0.010850694444444444,26.931423611111104,0)" xlink:href="#E"/><use transform="matrix(0.010850694444444444,0,0,0.010850694444444444,34.201388888888886,0)" xlink:href="#K"/><use transform="matrix(0.010850694444444444,0,0,0.010850694444444444,42.91449652777777,0)" xlink:href="#A"/><use transform="matrix(0.010850694444444444,0,0,0.010850694444444444,48.29644097222221,0)" xlink:href="#J"/><use transform="matrix(0.010850694444444444,0,0,0.010850694444444444,60.8181423611111,0)" xlink:href="#U"/><use transform="matrix(0.010850694444444444,0,0,0.010850694444444444,73.19878472222221,0)" xlink:href="#x"/><use transform="matrix(0.010850694444444444,0,0,0.010850694444444444,85.67708333333333,0)" xlink:href="#R"/></g><path fill="#333" d="M601 0v-560L49-1490h357l252 464c38 68 67 130 97 208 96-243 225-446 337-672h356L905-560V0H601" id="V"/><path fill="#333" d="M633 22C291 22 81-200 81-553c0-345 210-579 537-579 292 0 525 185 525 567v84H378c7 183 109 277 260 277 105 0 184-46 216-132l272 51C1071-99 893 22 633 22zM380-669h474c-15-146-94-237-233-237-143 0-229 99-241 237" id="W"/><path fill="#333" d="M572 22C302 22 117-98 78-306l279-48c29 105 101 156 224 156 114 0 185-48 185-115 0-118-228-130-337-155-215-49-322-150-322-317 0-215 187-347 470-347 265 0 424 116 466 298l-266 47c-24-76-87-130-196-130-98 0-174 46-174 113 0 56 38 95 144 117l201 40c216 44 320 143 320 302 0 220-207 367-500 367" id="X"/><g id="k"><use transform="matrix(0.008680555555555556,0,0,0.008680555555555556,0,0)" xlink:href="#V"/><use transform="matrix(0.008680555555555556,0,0,0.008680555555555556,11.050347222222223,0)" xlink:href="#W"/><use transform="matrix(0.008680555555555556,0,0,0.008680555555555556,21.640625,0)" xlink:href="#X"/></g><path d="M537 14c-226 0-379-139-379-422v-710h180v695c0 172 97 275 253 275 160 0 281-109 281-300v-670h181V0H879v-209C806-46 684 14 537 14" id="Y"/><g id="l"><use transform="matrix(0.009765625,0,0,0.009765625,0,0)" xlink:href="#T"/><use transform="matrix(0.009765625,0,0,0.009765625,12.578125,0)" xlink:href="#J"/><use transform="matrix(0.009765625,0,0,0.009765625,24.23828125,0)" xlink:href="#E"/><use transform="matrix(0.009765625,0,0,0.009765625,30.78125,0)" xlink:href="#Y"/><use transform="matrix(0.009765625,0,0,0.009765625,42.607421875,0)" xlink:href="#K"/><use transform="matrix(0.009765625,0,0,0.009765625,50.44921875,0)" xlink:href="#B"/></g><path d="M635 20c-292 0-500-160-510-396h192c11 142 145 229 315 229 187 0 323-105 323-260 0-161-125-274-346-274H488v-165h121c174 0 294-100 294-254 0-148-104-245-266-245-152 0-291 85-297 230H157c8-234 222-395 484-395 278 0 448 188 448 400 0 168-95 291-247 336v12c190 31 301 169 301 357 0 244-216 425-508 425" id="Z"/><path d="M646 20c-332 0-524-278-524-764 0-483 194-766 524-766s524 283 524 766c0 485-191 764-524 764zm0-166c218 0 341-220 341-598 0-380-123-601-341-601s-341 222-341 601c0 378 123 598 341 598" id="aa"/><path d="M120-303v-155l652-1032h231v1020h202v167h-202V0H821v-303H120zm702-167v-782h-12L323-482v12h499" id="ab"/><g id="m"><use transform="matrix(0.009765625,0,0,0.009765625,0,0)" xlink:href="#Z"/><use transform="matrix(0.009765625,0,0,0.009765625,12.353515625,0)" xlink:href="#aa"/><use transform="matrix(0.009765625,0,0,0.009765625,24.970703125,0)" xlink:href="#ab"/></g><path d="M218-607c0-325 108-727 258-974h175c-155 315-250 682-250 974 0 265 78 531 250 886H476C306-10 218-315 218-607" id="ac"/><path d="M180 0v-1490h224l606 953c40 63 108 177 176 312-27-437-7-821-13-1265h190V0h-226C860-448 622-778 356-1262c27 476 11 792 15 1262H180" id="ad"/><g id="n"><use transform="matrix(0.009765625,0,0,0.009765625,0,0)" xlink:href="#ac"/><use transform="matrix(0.009765625,0,0,0.009765625,7.294921875,0)" xlink:href="#ad"/><use transform="matrix(0.009765625,0,0,0.009765625,22.36328125,0)" xlink:href="#L"/><use transform="matrix(0.009765625,0,0,0.009765625,34.35546875,0)" xlink:href="#E"/></g><path d="M577 24c-279 0-473-224-473-580 0-354 195-576 474-576 218 0 287 134 324 193h14v-551h180V0H922v-173h-20C865-111 790 24 577 24zm27-161c203 0 314-172 314-421 0-247-108-413-314-413-212 0-317 181-317 413 0 235 108 421 317 421" id="ae"/><path d="M96 279C273-86 346-350 346-607c0-292-95-659-250-974h175c150 246 258 650 258 974 0 297-91 602-258 886H96" id="af"/><g id="o"><use transform="matrix(0.009765625,0,0,0.009765625,0,0)" xlink:href="#M"/><use transform="matrix(0.009765625,0,0,0.009765625,18.06640625,0)" xlink:href="#L"/><use transform="matrix(0.009765625,0,0,0.009765625,30.05859375,0)" xlink:href="#ae"/><use transform="matrix(0.009765625,0,0,0.009765625,42.3046875,0)" xlink:href="#A"/><use transform="matrix(0.009765625,0,0,0.009765625,47.1484375,0)" xlink:href="#S"/><use transform="matrix(0.009765625,0,0,0.009765625,54.55078125,0)" xlink:href="#A"/><use transform="matrix(0.009765625,0,0,0.009765625,59.39453125,0)" xlink:href="#J"/><use transform="matrix(0.009765625,0,0,0.009765625,71.0546875,0)" xlink:href="#ae"/><use transform="matrix(0.009765625,0,0,0.009765625,83.30078125,0)" xlink:href="#af"/></g><path d="M232-923l-22-567h194l-22 567H232zm340 0l-22-567h194l-22 567H572" id="ag"/><path d="M798-719v166H144v-166h654" id="ah"/><g id="p"><use transform="matrix(0.010850694444444444,0,0,0.010850694444444444,0,0)" xlink:href="#ag"/><use transform="matrix(0.010850694444444444,0,0,0.010850694444444444,10.3515625,0)" xlink:href="#A"/><use transform="matrix(0.010850694444444444,0,0,0.010850694444444444,15.733506944444445,0)" xlink:href="#S"/><use transform="matrix(0.010850694444444444,0,0,0.010850694444444444,23.328993055555554,0)" xlink:href="#ah"/><use transform="matrix(0.010850694444444444,0,0,0.010850694444444444,33.55034722222222,0)" xlink:href="#B"/><use transform="matrix(0.010850694444444444,0,0,0.010850694444444444,46.6796875,0)" xlink:href="#L"/><use transform="matrix(0.010850694444444444,0,0,0.010850694444444444,60.00434027777778,0)" xlink:href="#B"/><use transform="matrix(0.010850694444444444,0,0,0.010850694444444444,73.13368055555556,0)" xlink:href="#J"/><use transform="matrix(0.010850694444444444,0,0,0.010850694444444444,86.08940972222223,0)" xlink:href="#ah"/><use transform="matrix(0.010850694444444444,0,0,0.010850694444444444,96.3107638888889,0)" xlink:href="#N"/><use transform="matrix(0.010850694444444444,0,0,0.010850694444444444,115.77690972222224,0)" xlink:href="#x"/><use transform="matrix(0.010850694444444444,0,0,0.010850694444444444,128.25520833333334,0)" xlink:href="#E"/><use transform="matrix(0.010850694444444444,0,0,0.010850694444444444,135.30815972222223,0)" xlink:href="#y"/><use transform="matrix(0.010850694444444444,0,0,0.010850694444444444,148.00347222222223,0)" xlink:href="#z"/><use transform="matrix(0.010850694444444444,0,0,0.010850694444444444,161.14366319444446,0)" xlink:href="#ag"/></g><path d="M226-283v-166h904v166H226zm0-434v-166h904v166H226" id="ai"/><use transform="matrix(0.010850694444444444,0,0,0.010850694444444444,0,0)" xlink:href="#ai" id="q"/><path d="M383-449c-3-277 82-343 222-425 88-53 156-134 156-250 0-139-108-227-243-227-118 0-235 70-246 236H82c10-251 200-395 436-395 259 0 427 165 427 393 0 161-74 273-203 352-132 80-180 132-178 316H383zm93 462c-75 0-135-60-135-134 0-75 60-135 135-135 74 0 134 60 134 135 0 74-60 134-134 134" id="aj"/><g id="r"><use transform="matrix(0.010850694444444444,0,0,0.010850694444444444,0,0)" xlink:href="#J"/><use transform="matrix(0.010850694444444444,0,0,0.010850694444444444,12.955729166666666,0)" xlink:href="#E"/><use transform="matrix(0.010850694444444444,0,0,0.010850694444444444,20.33420138888889,0)" xlink:href="#x"/><use transform="matrix(0.010850694444444444,0,0,0.010850694444444444,32.8125,0)" xlink:href="#C"/><use transform="matrix(0.010850694444444444,0,0,0.010850694444444444,46.44097222222222,0)" xlink:href="#aj"/></g><path fill="#333" d="M135 0v-1490h340l471 754c59 97 122 210 187 365-32-387-14-721-19-1119h312V0h-341C855-382 627-689 427-1113c32 420 16 695 20 1113H135" id="ak"/><path fill="#333" d="M628 22C291 22 81-210 81-554c0-346 210-578 547-578 336 0 547 232 547 578 0 344-211 576-547 576zm0-236c160 0 242-146 242-341 0-197-82-341-242-341S387-753 387-555c0 195 81 341 241 341" id="al"/><g id="s"><use transform="matrix(0.008680555555555556,0,0,0.008680555555555556,0,0)" xlink:href="#ak"/><use transform="matrix(0.008680555555555556,0,0,0.008680555555555556,13.550347222222223,0)" xlink:href="#al"/></g><g id="t"><use transform="matrix(0.010850694444444444,0,0,0.010850694444444444,0,0)" xlink:href="#T"/><use transform="matrix(0.010850694444444444,0,0,0.010850694444444444,13.975694444444445,0)" xlink:href="#J"/><use transform="matrix(0.010850694444444444,0,0,0.010850694444444444,26.931423611111104,0)" xlink:href="#E"/><use transform="matrix(0.010850694444444444,0,0,0.010850694444444444,34.201388888888886,0)" xlink:href="#Y"/><use transform="matrix(0.010850694444444444,0,0,0.010850694444444444,47.34157986111111,0)" xlink:href="#K"/><use transform="matrix(0.010850694444444444,0,0,0.010850694444444444,56.054687499999986,0)" xlink:href="#B"/></g><g id="u"><use transform="matrix(0.010850694444444444,0,0,0.010850694444444444,0,0)" xlink:href="#B"/><use transform="matrix(0.010850694444444444,0,0,0.010850694444444444,13.129340277777777,0)" xlink:href="#J"/><use transform="matrix(0.010850694444444444,0,0,0.010850694444444444,25.68359375,0)" xlink:href="#D"/></g><path d="M600 0L52-1490h200c166 485 304 806 458 1336 156-533 285-846 449-1336h202L819 0H600" id="am"/><path d="M538 24C308 24 148-78 108-271l171-41c32 123 123 178 257 178 156 0 256-77 256-169 0-77-54-128-164-154l-186-44c-203-48-300-148-300-305 0-192 176-326 414-326 230 0 351 112 402 269l-163 42c-31-80-94-158-238-158-133 0-233 69-233 162 0 83 57 129 188 160l169 40c203 48 298 149 298 302 0 196-179 339-441 339" id="an"/><g id="v"><use transform="matrix(0.010850694444444444,0,0,0.010850694444444444,0,0)" xlink:href="#am"/><use transform="matrix(0.010850694444444444,0,0,0.010850694444444444,14.20355902777778,0)" xlink:href="#J"/><use transform="matrix(0.010850694444444444,0,0,0.010850694444444444,27.159288194444443,0)" xlink:href="#K"/><use transform="matrix(0.010850694444444444,0,0,0.010850694444444444,35.52517361111111,0)" xlink:href="#an"/><use transform="matrix(0.010850694444444444,0,0,0.010850694444444444,47.25477430555556,0)" xlink:href="#A"/><use transform="matrix(0.010850694444444444,0,0,0.010850694444444444,52.636718749999986,0)" xlink:href="#L"/><use transform="matrix(0.010850694444444444,0,0,0.010850694444444444,65.96137152777777,0)" xlink:href="#B"/></g></defs></g></svg>