<svg xmlns="http://www.w3.org/2000/svg" xmlns:xlink="http://www.w3.org/1999/xlink" xmlns:lucid="lucid" width="1280" height="1262.5"><g transform="translate(1280 1262.5)" lucid:page-tab-id="0_0"><path d="M-1270-981a1 1 0 0 1 1-1h614a1 1 0 0 1 1 1v99a1 1 0 0 1-1 1h-614a1 1 0 0 1-1-1z" stroke="#000" stroke-width="3" fill="#fff"/><use xlink:href="#a" transform="matrix(1,0,0,1,-1265.0000000000011,-977) translate(219.73177083333334 53.58376736111111)"/><path d="M-1270-721a62.5 62.5 0 0 1 62.5-62.5h491A62.5 62.5 0 0 1-654-721a62.5 62.5 0 0 1-62.5 62.5h-491A62.5 62.5 0 0 1-1270-721z" stroke="#000" stroke-width="3" fill="#fff"/><path d="M-1230-721a37.5 37.5 0 0 1 37.5-37.5h75A37.5 37.5 0 0 1-1080-721a37.5 37.5 0 0 1-37.5 37.5h-75A37.5 37.5 0 0 1-1230-721z" stroke="#000" stroke-width="2" fill="#fff"/><use xlink:href="#b" transform="matrix(1,0,0,1,-1225.0000000000011,-753.5) translate(28.45811631944445 40.583767361111114)"/><path d="M-1035-723.5a37.5 37.5 0 0 1 37.5-37.5h75a37.5 37.5 0 0 1 37.5 37.5 37.5 37.5 0 0 1-37.5 37.5h-75a37.5 37.5 0 0 1-37.5-37.5z" stroke="#000" stroke-width="2" fill="#fff"/><use xlink:href="#c" transform="matrix(1,0,0,1,-1030.0000000000011,-756) translate(18.811848958333336 40.583767361111114)"/><path d="M-840-721a37.5 37.5 0 0 1 37.5-37.5h75A37.5 37.5 0 0 1-690-721a37.5 37.5 0 0 1-37.5 37.5h-75A37.5 37.5 0 0 1-840-721z" stroke="#000" stroke-width="2" fill="#fff"/><use xlink:href="#d" transform="matrix(1,0,0,1,-835.0000000000011,-753.5) translate(10.44053819444445 40.583767361111114)"/><path d="M-953.17-874.94l.1.06.47.4.5.45.55.55.57.65.6.78.66.95.7 1.16.76 1.44.83 1.8.9 2.28.93 2.92 1 3.75.95 4.8.85 6.04.6 7.18.2 7.92-.25 7.87-.63 7.08-.87 5.88-.98 4.68-.4 1.53m-25.7 15.2l-.1-.05-.47-.4-.5-.45-.55-.55-.57-.65-.6-.78-.66-.95-.7-1.16-.76-1.44-.83-1.8-.9-2.28-.93-2.92-1-3.75-.95-4.8-.85-6.04-.6-7.18-.2-7.92.25-7.87.63-7.08.87-5.88.98-4.68.4-1.53" stroke="#000" stroke-width="2" fill="none"/><path d="M-952.6-875.78l-1.05 1.65-.87-.54 1.04-1.65z" stroke="#000" stroke-width=".05"/><path d="M-952.4-791.82l2.94-14.7 8.08 4.54z" stroke="#000" stroke-width="2"/><path d="M-969.48-789.83l-1.04 1.65-.87-.54 1.05-1.65z" stroke="#000" stroke-width=".05"/><path d="M-971.6-872.68l-2.94 14.7-8.08-4.54z" stroke="#000" stroke-width="2"/><path d="M-1270-1260a1 1 0 0 1 1-1h614a1 1 0 0 1 1 1v99a1 1 0 0 1-1 1h-614a1 1 0 0 1-1-1z" stroke="#000" stroke-width="3" fill="#fff"/><use xlink:href="#e" transform="matrix(1,0,0,1,-1265.0000000000011,-1256) translate(139.34982638888889 53.58376736111111)"/><use xlink:href="#f" transform="matrix(1,0,0,1,-1265.0000000000011,-1256) translate(209.52126736111111 53.58376736111111)"/><use xlink:href="#g" transform="matrix(1,0,0,1,-1265.0000000000011,-1256) translate(287.34244791666663 53.58376736111111)"/><use xlink:href="#h" transform="matrix(1,0,0,1,-1265.0000000000011,-1256) translate(431.15755208333337 53.58376736111111)"/><path d="M-962-984.5v-173" stroke="#3a414a" stroke-width="2" fill="none"/><path d="M-961.02-983.5H-963v-1.03h1.96zM-961.02-1157.47H-963v-1.03h1.96z" stroke="#3a414a" stroke-width=".05" fill="#3a414a"/><path d="M-972-1070.9v-.1a10 10 0 0 1 10-10 10 10 0 0 1 10 10 10 10 0 0 1-10 10 10 10 0 0 1-10-10v-.1" stroke="#3a414a" stroke-width="2" fill="#fff"/><path d="M-982.52-1094.22a.96.96 0 0 0-1.73 0l-4.87 10.2a.65.65 0 0 0 .9.84l3.08-1.7a3.67 3.67 0 0 1 3.5 0l3.1 1.7a.65.65 0 0 0 .9-.85z"/><use xlink:href="#i" transform="matrix(1,0,0,1,-988.7731054687512,-1081.127373046875) translate(0 16.216875)"/><path d="M-1190-560a1 1 0 0 1 1-1h50.08a1 1 0 0 1 1 1v74a1 1 0 0 1-1 1H-1189a1 1 0 0 1-1-1z" stroke="#000" stroke-width="3" fill="#fff"/><path d="M-1163.96-536.5s-9 0-9-9 9-9 9-9c9 0 9 9 9 9 0 9-9 9-9 9v9m-18-9l17.1 8.55a2 2 0 0 0 1.8 0l17.1-8.55m-18 9v18m-18 18l17.3-17.3a1 1 0 0 1 1.4 0l17.3 17.3M-1050-560a1 1 0 0 1 1-1h174a1 1 0 0 1 1 1v99a1 1 0 0 1-1 1h-174a1 1 0 0 1-1-1z" stroke="#000" stroke-width="3" fill="#fff"/><use xlink:href="#j" transform="matrix(1,0,0,1,-1045.0000000000011,-556) translate(19.908637152777786 40.13975694444444)"/><use xlink:href="#k" transform="matrix(1,0,0,1,-1045.0000000000011,-556) translate(48.34830729166667 67.02777777777777)"/><path d="M-840-560a1 1 0 0 1 1-1h174a1 1 0 0 1 1 1v99a1 1 0 0 1-1 1h-174a1 1 0 0 1-1-1z" stroke="#000" stroke-width="3" fill="#fff"/><use xlink:href="#l" transform="matrix(1,0,0,1,-835.0000000000011,-556) translate(36.824869791666664 26.69574652777777)"/><use xlink:href="#m" transform="matrix(1,0,0,1,-835.0000000000011,-556) translate(22.78949652777778 53.58376736111111)"/><use xlink:href="#n" transform="matrix(1,0,0,1,-835.0000000000011,-556) translate(52.82421875 80.47178819444444)"/><path d="M-1280-479a6 6 0 0 1 6-6h238a6 6 0 0 1 6 6v48a6 6 0 0 1-6 6h-238a6 6 0 0 1-6-6z" fill="none"/><use xlink:href="#o" transform="matrix(1,0,0,1,-1280,-485) translate(45.486111111111114 38.083767361111114)"/><path d="M-1154.73-652.44l.1.06.47.4.5.45.55.55.56.65.6.78.66.95.7 1.16.76 1.44.83 1.8.9 2.28.94 2.92 1 3.75.95 4.8.84 6.04.6 7.18.2 7.92-.25 7.87-.64 7.08-.87 5.88-1 4.68-.4 1.53m-25.7 15.2l-.08-.05-.48-.4-.5-.45-.55-.55-.58-.65-.6-.78-.66-.95-.7-1.16-.76-1.44-.83-1.8-.9-2.28-.93-2.92-.98-3.75-.97-4.8-.86-6.04-.6-7.18-.2-7.92.25-7.87.63-7.08.87-5.88.96-4.68.4-1.53" stroke="#000" stroke-width="2" fill="none"/><path d="M-1154.17-653.28l-1.04 1.65-.88-.54 1.04-1.65z" stroke="#000" stroke-width=".05"/><path d="M-1153.97-569.32l2.95-14.7 8.08 4.54z" stroke="#000" stroke-width="2"/><path d="M-1171.04-567.33l-1.04 1.65-.87-.54 1.04-1.65z" stroke="#000" stroke-width=".05"/><path d="M-1173.15-650.18l-2.95 14.7-8.08-4.54z" stroke="#000" stroke-width="2"/><path d="M-953.17-652.44l.1.06.47.4.5.45.55.55.57.65.6.78.66.95.7 1.16.76 1.44.83 1.8.9 2.28.93 2.92 1 3.75.95 4.8.85 6.04.6 7.18.2 7.92-.25 7.87-.63 7.08-.87 5.88-.98 4.68-.4 1.53m-25.7 15.2l-.1-.05-.47-.4-.5-.45-.55-.55-.57-.65-.6-.78-.66-.95-.7-1.16-.76-1.44-.83-1.8-.9-2.28-.93-2.92-1-3.75-.95-4.8-.85-6.04-.6-7.18-.2-7.92.25-7.87.63-7.08.87-5.88.98-4.68.4-1.53" stroke="#000" stroke-width="2" fill="none"/><path d="M-952.6-653.28l-1.05 1.65-.87-.54 1.04-1.65z" stroke="#000" stroke-width=".05"/><path d="M-952.4-569.32l2.94-14.7 8.08 4.54z" stroke="#000" stroke-width="2"/><path d="M-969.48-567.33l-1.04 1.65-.87-.54 1.05-1.65z" stroke="#000" stroke-width=".05"/><path d="M-971.6-650.18l-2.94 14.7-8.08-4.54z" stroke="#000" stroke-width="2"/><path d="M-740.42-652.34l.08.06.48.4.5.46.54.56.56.65.6.78.64.96.7 1.17.74 1.45.8 1.82.86 2.3.9 2.92.95 3.75.9 4.82.8 6.04.5 7.2.12 7.93-.35 7.88-.7 7.07-.95 5.88-1.02 4.67-.43 1.5m-25.87 14.92l-.08-.06-.48-.4-.5-.46-.54-.56-.56-.65-.6-.78-.64-.96-.7-1.17-.74-1.45-.8-1.82-.87-2.3-.92-2.92-.92-3.75-.9-4.82-.8-6.04-.5-7.2-.12-7.93.34-7.88.72-7.07.94-5.88 1.02-4.67.43-1.5" stroke="#000" stroke-width="2" fill="none"/><path d="M-739.86-653.17l-1.05 1.64-.88-.56 1.06-1.63z" stroke="#000" stroke-width=".05"/><path d="M-740.63-569.2l3.13-14.68 8.02 4.64z" stroke="#000" stroke-width="2"/><path d="M-757.7-567.4l-1.07 1.63-.87-.56 1.06-1.64z" stroke="#000" stroke-width=".05"/><path d="M-758.86-650.3L-762-635.6l-8-4.64z" stroke="#000" stroke-width="2"/><defs><path d="M180 0v-1490h190v644h782v-644h190V0h-190v-678H370V0H180" id="p"/><path d="M52 0l541-1490h220L1361 0h-200l-149-416H398L254 0H52zm404-582h497c-103-290-145-390-251-756-108 377-145 460-246 756" id="q"/><path d="M180 0v-1490h224l606 953c40 63 108 177 176 312-27-437-7-821-13-1265h190V0h-226C860-448 622-778 356-1262c27 476 11 792 15 1262H180" id="r"/><path d="M798-719v166H144v-166h654" id="s"/><path d="M784 20c-382 0-662-292-662-764 0-473 280-766 662-766s660 293 660 766c0 472-278 764-660 764zm0-176c266 0 475-207 475-588 0-383-209-590-475-590-268 0-477 208-477 590 0 380 209 588 477 588" id="t"/><path d="M158 418v-1536h174v179h20c37-59 106-193 324-193 279 0 474 222 474 576 0 356-194 580-473 580-213 0-288-135-325-197h-14v591H158zm492-555c209 0 317-186 317-421 0-232-105-413-317-413-206 0-314 166-314 413 0 249 111 421 314 421" id="u"/><path d="M628 24c-324 0-524-230-524-574 0-343 198-582 503-582 237 0 487 146 487 559v75H286c9 234 145 362 343 362 132 0 231-58 273-172l174 48C1024-91 857 24 628 24zM287-650h624c-17-190-120-322-304-322-192 0-309 151-320 322" id="v"/><path d="M158 0v-1118h174v172h12c41-113 157-188 290-188 26 0 70 2 91 3v181c-11-2-60-10-108-10-161 0-279 109-279 260V0H158" id="w"/><path d="M471 26C259 26 90-98 90-318c0-256 228-303 435-329 202-27 287-16 287-108 0-139-79-219-234-219-161 0-248 86-283 164l-173-57c86-203 278-265 451-265 150 0 419 46 419 395V0H815v-152h-12C765-73 660 26 471 26zm31-159c199 0 310-134 310-271v-155c-30 35-226 55-295 64-131 17-246 59-246 186 0 116 97 176 231 176" id="x"/><path d="M598-1118v154H368v674c0 100 37 144 132 144 23 0 62-6 92-12L629-6c-37 13-88 20-134 20-193 0-307-107-307-290v-688H20v-154h168v-266h180v266h230" id="y"/><path d="M613 24c-304 0-509-231-509-576 0-350 205-580 509-580 305 0 511 230 511 580 0 345-206 576-511 576zm0-161c226 0 329-195 329-415 0-222-103-419-329-419-223 0-326 196-326 419 0 220 103 415 326 415" id="z"/><g id="a"><use transform="matrix(0.010850694444444444,0,0,0.010850694444444444,0,0)" xlink:href="#p"/><use transform="matrix(0.010850694444444444,0,0,0.010850694444444444,16.514756944444443,0)" xlink:href="#q"/><use transform="matrix(0.010850694444444444,0,0,0.010850694444444444,31.846788194444443,0)" xlink:href="#r"/><use transform="matrix(0.010850694444444444,0,0,0.010850694444444444,48.58940972222222,0)" xlink:href="#q"/><use transform="matrix(0.010850694444444444,0,0,0.010850694444444444,63.17274305555555,0)" xlink:href="#s"/><use transform="matrix(0.010850694444444444,0,0,0.010850694444444444,73.39409722222223,0)" xlink:href="#t"/><use transform="matrix(0.010850694444444444,0,0,0.010850694444444444,90.38628472222221,0)" xlink:href="#u"/><use transform="matrix(0.010850694444444444,0,0,0.010850694444444444,103.99305555555556,0)" xlink:href="#v"/><use transform="matrix(0.010850694444444444,0,0,0.010850694444444444,116.94878472222224,0)" xlink:href="#w"/><use transform="matrix(0.010850694444444444,0,0,0.010850694444444444,125.3146701388889,0)" xlink:href="#x"/><use transform="matrix(0.010850694444444444,0,0,0.010850694444444444,137.79296875,0)" xlink:href="#y"/><use transform="matrix(0.010850694444444444,0,0,0.010850694444444444,144.84592013888889,0)" xlink:href="#z"/><use transform="matrix(0.010850694444444444,0,0,0.010850694444444444,158.17057291666666,0)" xlink:href="#w"/></g><path d="M98-1322v-168h1126v168H757V0H567v-1322H98" id="A"/><path d="M338-670V0H158v-1118h173l1 207c72-158 192-221 342-221 226 0 378 139 378 422V0H872v-695c0-172-96-275-252-275-161 0-282 109-282 300" id="B"/><path d="M538 24C308 24 148-78 108-271l171-41c32 123 123 178 257 178 156 0 256-77 256-169 0-77-54-128-164-154l-186-44c-203-48-300-148-300-305 0-192 176-326 414-326 230 0 351 112 402 269l-163 42c-31-80-94-158-238-158-133 0-233 69-233 162 0 83 57 129 188 160l169 40c203 48 298 149 298 302 0 196-179 339-441 339" id="C"/><g id="b"><use transform="matrix(0.010850694444444444,0,0,0.010850694444444444,0,0)" xlink:href="#A"/><use transform="matrix(0.010850694444444444,0,0,0.010850694444444444,12.608506944444445,0)" xlink:href="#v"/><use transform="matrix(0.010850694444444444,0,0,0.010850694444444444,25.56423611111111,0)" xlink:href="#B"/><use transform="matrix(0.010850694444444444,0,0,0.010850694444444444,38.693576388888886,0)" xlink:href="#x"/><use transform="matrix(0.010850694444444444,0,0,0.010850694444444444,51.171875,0)" xlink:href="#B"/><use transform="matrix(0.010850694444444444,0,0,0.010850694444444444,64.30121527777777,0)" xlink:href="#y"/><use transform="matrix(0.010850694444444444,0,0,0.010850694444444444,71.35416666666666,0)" xlink:href="#C"/></g><path d="M783 20c-382 0-661-292-661-764 0-473 279-766 661-766 302 0 548 182 601 489h-190c-42-204-217-313-411-313-268 0-476 208-476 590 0 381 209 588 476 588 195 0 369-110 411-313h190c-52 303-296 489-601 489" id="D"/><path d="M158 0v-1118h180V0H158zm91-1301c-68 0-125-53-125-119s57-119 125-119c69 0 126 53 126 119s-57 119-126 119" id="E"/><g id="c"><use transform="matrix(0.010850694444444444,0,0,0.010850694444444444,0,0)" xlink:href="#D"/><use transform="matrix(0.010850694444444444,0,0,0.010850694444444444,16.23263888888889,0)" xlink:href="#z"/><use transform="matrix(0.010850694444444444,0,0,0.010850694444444444,29.557291666666664,0)" xlink:href="#B"/><use transform="matrix(0.010850694444444444,0,0,0.010850694444444444,42.68663194444444,0)" xlink:href="#y"/><use transform="matrix(0.010850694444444444,0,0,0.010850694444444444,50.065104166666664,0)" xlink:href="#x"/><use transform="matrix(0.010850694444444444,0,0,0.010850694444444444,62.54340277777778,0)" xlink:href="#E"/><use transform="matrix(0.010850694444444444,0,0,0.010850694444444444,67.92534722222221,0)" xlink:href="#B"/><use transform="matrix(0.010850694444444444,0,0,0.010850694444444444,81.05468749999999,0)" xlink:href="#v"/><use transform="matrix(0.010850694444444444,0,0,0.010850694444444444,94.01041666666666,0)" xlink:href="#w"/></g><path d="M577 24c-279 0-473-224-473-580 0-354 195-576 474-576 218 0 287 134 324 193h14v-551h180V0H922v-173h-20C865-111 790 24 577 24zm27-161c203 0 314-172 314-421 0-247-108-413-314-413-212 0-317 181-317 413 0 235 108 421 317 421" id="F"/><path d="M338-1490V0H158v-1490h180" id="G"/><g id="d"><use transform="matrix(0.010850694444444444,0,0,0.010850694444444444,0,0)" xlink:href="#D"/><use transform="matrix(0.010850694444444444,0,0,0.010850694444444444,16.23263888888889,0)" xlink:href="#w"/><use transform="matrix(0.010850694444444444,0,0,0.010850694444444444,24.229600694444443,0)" xlink:href="#v"/><use transform="matrix(0.010850694444444444,0,0,0.010850694444444444,37.18532986111111,0)" xlink:href="#F"/><use transform="matrix(0.010850694444444444,0,0,0.010850694444444444,50.79210069444444,0)" xlink:href="#v"/><use transform="matrix(0.010850694444444444,0,0,0.010850694444444444,63.74782986111111,0)" xlink:href="#B"/><use transform="matrix(0.010850694444444444,0,0,0.010850694444444444,76.87717013888889,0)" xlink:href="#y"/><use transform="matrix(0.010850694444444444,0,0,0.010850694444444444,84.14713541666666,0)" xlink:href="#E"/><use transform="matrix(0.010850694444444444,0,0,0.010850694444444444,89.52907986111111,0)" xlink:href="#x"/><use transform="matrix(0.010850694444444444,0,0,0.010850694444444444,102.00737847222221,0)" xlink:href="#G"/><use transform="matrix(0.010850694444444444,0,0,0.010850694444444444,107.38932291666666,0)" xlink:href="#C"/></g><g id="e"><use transform="matrix(0.010850694444444444,0,0,0.010850694444444444,0,0)" xlink:href="#p"/><use transform="matrix(0.010850694444444444,0,0,0.010850694444444444,16.514756944444443,0)" xlink:href="#q"/><use transform="matrix(0.010850694444444444,0,0,0.010850694444444444,31.846788194444443,0)" xlink:href="#r"/><use transform="matrix(0.010850694444444444,0,0,0.010850694444444444,48.58940972222222,0)" xlink:href="#q"/></g><g id="f"><use transform="matrix(0.010850694444444444,0,0,0.010850694444444444,0,0)" xlink:href="#A"/><use transform="matrix(0.010850694444444444,0,0,0.010850694444444444,12.608506944444445,0)" xlink:href="#v"/><use transform="matrix(0.010850694444444444,0,0,0.010850694444444444,25.56423611111111,0)" xlink:href="#B"/><use transform="matrix(0.010850694444444444,0,0,0.010850694444444444,38.693576388888886,0)" xlink:href="#x"/><use transform="matrix(0.010850694444444444,0,0,0.010850694444444444,51.171875,0)" xlink:href="#B"/><use transform="matrix(0.010850694444444444,0,0,0.010850694444444444,64.30121527777777,0)" xlink:href="#y"/></g><path d="M180 0v-1490h270l367 940c28 72 75 218 110 339 35-117 81-264 110-339l362-940h271V0h-187c2-448-5-837 7-1287-157 497-311 829-483 1287H842C666-458 514-784 354-1284c12 438 5 843 7 1284H180" id="H"/><path d="M611 442c-248 0-391-105-460-228l146-94c47 65 117 165 314 165 178 0 307-82 307-266v-224h-17C863-141 792-18 576-18c-268 0-472-195-472-546 0-346 197-568 476-568 216 0 288 133 326 193h17v-179h175V29c0 289-215 413-487 413zm-5-620c203 0 314-146 314-390 0-237-108-403-314-403-213 0-319 180-319 403 0 230 109 390 319 390" id="I"/><path d="M158 0v-1118h175l1 205c55-151 181-225 313-225 147 0 245 90 285 228 53-141 190-228 352-228 194 0 352 125 352 384V0h-181v-749c0-161-105-225-225-225-151 0-243 103-243 244V0H807v-767c0-124-93-207-219-207-131 0-250 92-250 270V0H158" id="J"/><g id="g"><use transform="matrix(0.010850694444444444,0,0,0.010850694444444444,0,0)" xlink:href="#H"/><use transform="matrix(0.010850694444444444,0,0,0.010850694444444444,20.07378472222222,0)" xlink:href="#x"/><use transform="matrix(0.010850694444444444,0,0,0.010850694444444444,32.55208333333333,0)" xlink:href="#B"/><use transform="matrix(0.010850694444444444,0,0,0.010850694444444444,45.68142361111111,0)" xlink:href="#x"/><use transform="matrix(0.010850694444444444,0,0,0.010850694444444444,58.15972222222221,0)" xlink:href="#I"/><use transform="matrix(0.010850694444444444,0,0,0.010850694444444444,71.78819444444443,0)" xlink:href="#v"/><use transform="matrix(0.010850694444444444,0,0,0.010850694444444444,84.7439236111111,0)" xlink:href="#J"/><use transform="matrix(0.010850694444444444,0,0,0.010850694444444444,104.21006944444441,0)" xlink:href="#v"/><use transform="matrix(0.010850694444444444,0,0,0.010850694444444444,117.1657986111111,0)" xlink:href="#B"/><use transform="matrix(0.010850694444444444,0,0,0.010850694444444444,130.29513888888889,0)" xlink:href="#y"/></g><path d="M180 0v-1490h510c348 0 508 209 508 474 0 266-160 477-507 477H370V0H180zm190-706h312c236 0 327-133 327-310 0-176-91-307-329-307H370v617" id="K"/><path d="M370-1490V0H180v-1490h190" id="L"/><g id="h"><use transform="matrix(0.010850694444444444,0,0,0.010850694444444444,0,0)" xlink:href="#q"/><use transform="matrix(0.010850694444444444,0,0,0.010850694444444444,15.33203125,0)" xlink:href="#K"/><use transform="matrix(0.010850694444444444,0,0,0.010850694444444444,29.524739583333332,0)" xlink:href="#L"/></g><path d="M180 0v-1490h510c348 0 508 194 508 460 0 198-88 351-276 417L1256 0h-220L726-579c-117 2-238 0-356 1V0H180zm190-747h312c235 0 327-108 327-283 0-177-92-293-329-293H370v576" id="M"/><use transform="matrix(0.008173828125000001,0,0,0.008173828125000001,0,0)" xlink:href="#M" id="i"/><path d="M645 0H180v-1490h484c435 0 692 280 692 742 0 466-257 748-711 748zM370-168h263c363 0 539-218 539-580 0-358-176-574-521-574H370v1154" id="N"/><path d="M140 405l46-156c120 36 205 19 263-150l32-93L54-1118h197c107 313 237 620 324 950 87-331 219-637 326-950h196L606 167c-68 178-176 259-334 259-64 0-113-12-132-21" id="O"/><g id="j"><use transform="matrix(0.010850694444444444,0,0,0.010850694444444444,0,0)" xlink:href="#N"/><use transform="matrix(0.010850694444444444,0,0,0.010850694444444444,16.03732638888889,0)" xlink:href="#v"/><use transform="matrix(0.010850694444444444,0,0,0.010850694444444444,28.99305555555556,0)" xlink:href="#u"/><use transform="matrix(0.010850694444444444,0,0,0.010850694444444444,42.599826388888886,0)" xlink:href="#G"/><use transform="matrix(0.010850694444444444,0,0,0.010850694444444444,47.98177083333333,0)" xlink:href="#z"/><use transform="matrix(0.010850694444444444,0,0,0.010850694444444444,60.87239583333333,0)" xlink:href="#O"/><use transform="matrix(0.010850694444444444,0,0,0.010850694444444444,73.36154513888889,0)" xlink:href="#J"/><use transform="matrix(0.010850694444444444,0,0,0.010850694444444444,92.82769097222221,0)" xlink:href="#v"/><use transform="matrix(0.010850694444444444,0,0,0.010850694444444444,105.78342013888889,0)" xlink:href="#B"/><use transform="matrix(0.010850694444444444,0,0,0.010850694444444444,118.91276041666666,0)" xlink:href="#y"/></g><path d="M657 26c-323 0-524-166-541-416h195c15 169 171 246 346 246 202 0 356-106 356-265 5-203-294-238-475-293-239-73-380-191-380-389 0-252 224-419 512-419 294 0 499 171 508 396H992c-17-145-151-228-328-228-193 0-321 102-321 242 0 156 175 211 284 241l149 41c160 44 422 134 422 412 0 244-197 432-541 432" id="P"/><path d="M481 0L54-1118h197c107 314 236 620 325 951 87-331 217-637 324-951h197L670 0H481" id="Q"/><g id="k"><use transform="matrix(0.010850694444444444,0,0,0.010850694444444444,0,0)" xlink:href="#P"/><use transform="matrix(0.010850694444444444,0,0,0.010850694444444444,14.2578125,0)" xlink:href="#v"/><use transform="matrix(0.010850694444444444,0,0,0.010850694444444444,27.213541666666664,0)" xlink:href="#w"/><use transform="matrix(0.010850694444444444,0,0,0.010850694444444444,35.92664930555555,0)" xlink:href="#Q"/><use transform="matrix(0.010850694444444444,0,0,0.010850694444444444,47.98177083333333,0)" xlink:href="#v"/><use transform="matrix(0.010850694444444444,0,0,0.010850694444444444,60.937499999999986,0)" xlink:href="#w"/></g><path d="M677 24c-213 0-288-135-325-197h-20V0H158v-1490h180v551h14c37-59 106-193 324-193 279 0 474 222 474 576 0 356-194 580-473 580zm-27-161c209 0 317-186 317-421 0-232-105-413-317-413-206 0-314 166-314 413 0 249 111 421 314 421" id="R"/><g id="l"><use transform="matrix(0.010850694444444444,0,0,0.010850694444444444,0,0)" xlink:href="#q"/><use transform="matrix(0.010850694444444444,0,0,0.010850694444444444,15.33203125,0)" xlink:href="#w"/><use transform="matrix(0.010850694444444444,0,0,0.010850694444444444,24.04513888888889,0)" xlink:href="#R"/><use transform="matrix(0.010850694444444444,0,0,0.010850694444444444,37.651909722222214,0)" xlink:href="#E"/><use transform="matrix(0.010850694444444444,0,0,0.010850694444444444,43.03385416666666,0)" xlink:href="#y"/><use transform="matrix(0.010850694444444444,0,0,0.010850694444444444,50.303819444444436,0)" xlink:href="#w"/><use transform="matrix(0.010850694444444444,0,0,0.010850694444444444,58.6697048611111,0)" xlink:href="#x"/><use transform="matrix(0.010850694444444444,0,0,0.010850694444444444,71.14800347222221,0)" xlink:href="#w"/><use transform="matrix(0.010850694444444444,0,0,0.010850694444444444,79.86111111111111,0)" xlink:href="#O"/></g><path d="M180 0v-1490h190c0 262 1 526-3 784 217-279 467-523 702-784h249L716-845 1319 0h-225L585-716 370-489V0H180" id="S"/><path d="M537 14c-226 0-379-139-379-422v-710h180v695c0 172 97 275 253 275 160 0 281-109 281-300v-670h181V0H879v-209C806-46 684 14 537 14" id="T"/><g id="m"><use transform="matrix(0.010850694444444444,0,0,0.010850694444444444,0,0)" xlink:href="#S"/><use transform="matrix(0.010850694444444444,0,0,0.010850694444444444,14.181857638888888,0)" xlink:href="#T"/><use transform="matrix(0.010850694444444444,0,0,0.010850694444444444,27.32204861111111,0)" xlink:href="#R"/><use transform="matrix(0.010850694444444444,0,0,0.010850694444444444,40.92881944444444,0)" xlink:href="#v"/><use transform="matrix(0.010850694444444444,0,0,0.010850694444444444,53.88454861111111,0)" xlink:href="#w"/><use transform="matrix(0.010850694444444444,0,0,0.010850694444444444,62.59765625,0)" xlink:href="#B"/><use transform="matrix(0.010850694444444444,0,0,0.010850694444444444,75.72699652777777,0)" xlink:href="#v"/><use transform="matrix(0.010850694444444444,0,0,0.010850694444444444,88.68272569444444,0)" xlink:href="#y"/><use transform="matrix(0.010850694444444444,0,0,0.010850694444444444,95.73567708333333,0)" xlink:href="#v"/><use transform="matrix(0.010850694444444444,0,0,0.010850694444444444,108.69140625,0)" xlink:href="#C"/></g><g id="n"><use transform="matrix(0.010850694444444444,0,0,0.010850694444444444,0,0)" xlink:href="#D"/><use transform="matrix(0.010850694444444444,0,0,0.010850694444444444,16.23263888888889,0)" xlink:href="#G"/><use transform="matrix(0.010850694444444444,0,0,0.010850694444444444,21.614583333333336,0)" xlink:href="#E"/><use transform="matrix(0.010850694444444444,0,0,0.010850694444444444,26.99652777777778,0)" xlink:href="#v"/><use transform="matrix(0.010850694444444444,0,0,0.010850694444444444,39.95225694444444,0)" xlink:href="#B"/><use transform="matrix(0.010850694444444444,0,0,0.010850694444444444,53.08159722222222,0)" xlink:href="#y"/></g><g id="o"><use transform="matrix(0.010850694444444444,0,0,0.010850694444444444,0,0)" xlink:href="#N"/><use transform="matrix(0.010850694444444444,0,0,0.010850694444444444,16.03732638888889,0)" xlink:href="#v"/><use transform="matrix(0.010850694444444444,0,0,0.010850694444444444,28.559027777777775,0)" xlink:href="#Q"/><use transform="matrix(0.010850694444444444,0,0,0.010850694444444444,40.169270833333336,0)" xlink:href="#s"/><use transform="matrix(0.010850694444444444,0,0,0.010850694444444444,50.390625,0)" xlink:href="#t"/><use transform="matrix(0.010850694444444444,0,0,0.010850694444444444,67.3828125,0)" xlink:href="#u"/><use transform="matrix(0.010850694444444444,0,0,0.010850694444444444,80.98958333333333,0)" xlink:href="#C"/><use transform="matrix(0.010850694444444444,0,0,0.010850694444444444,92.71918402777777,0)" xlink:href="#s"/><use transform="matrix(0.010850694444444444,0,0,0.010850694444444444,101.30208333333333,0)" xlink:href="#A"/><use transform="matrix(0.010850694444444444,0,0,0.010850694444444444,113.91059027777777,0)" xlink:href="#v"/><use transform="matrix(0.010850694444444444,0,0,0.010850694444444444,127.08333333333333,0)" xlink:href="#x"/><use transform="matrix(0.010850694444444444,0,0,0.010850694444444444,139.56163194444443,0)" xlink:href="#J"/></g></defs></g></svg>